<?xml version="1.0" standalone="no"?>
<!DOCTYPE svg PUBLIC "-//W3C//DTD SVG 20010904//EN"
 "http://www.w3.org/TR/2001/REC-SVG-20010904/DTD/svg10.dtd">
<svg version="1.0" xmlns="http://www.w3.org/2000/svg"
 width="692.000000pt" height="597.000000pt" viewBox="0 0 692.000000 597.000000"
 preserveAspectRatio="xMidYMid meet">
<metadata>
Created by potrace 1.16, written by Peter Selinger 2001-2019
</metadata>
<g transform="translate(0.000000,597.000000) scale(0.100000,-0.100000)"
fill="#000000" stroke="none">
<path d="M2670 5933 c-32 -37 -65 -101 -56 -110 2 -2 13 0 24 6 46 25 41 7
-16 -53 -68 -73 -217 -305 -244 -381 -16 -43 -17 -70 -12 -197 5 -113 4 -152
-6 -163 -11 -13 -11 -20 0 -39 10 -19 10 -38 1 -88 -6 -36 -11 -98 -11 -139 0
-49 -7 -94 -20 -132 -21 -59 -28 -177 -10 -177 6 0 10 5 10 11 0 5 4 8 9 5 5
-3 11 -30 13 -60 3 -38 14 -70 35 -104 34 -55 41 -110 45 -365 l2 -138 -124
-88 c-111 -77 -127 -92 -144 -134 -17 -40 -18 -55 -10 -97 l11 -50 -82 0 c-45
0 -182 7 -306 16 -310 22 -529 15 -664 -21 -54 -14 -136 -43 -182 -65 -77 -36
-85 -43 -143 -122 -34 -45 -108 -156 -166 -244 -98 -151 -108 -163 -150 -179
-26 -10 -61 -31 -79 -47 -37 -32 -53 -85 -57 -193 -2 -54 -13 -84 -119 -300
-64 -132 -139 -282 -168 -334 l-51 -94 1 -91 0 -91 16 40 c8 22 69 153 135
290 66 138 140 294 166 348 41 86 62 116 62 88 0 -5 29 -46 65 -90 36 -45 65
-85 65 -90 0 -9 -217 -401 -393 -710 l-117 -205 0 -173 0 -173 27 0 c18 0 35
-10 50 -27 22 -27 22 -27 23 -6 0 27 5 28 165 48 66 8 132 17 146 21 22 5 31
0 55 -31 30 -39 24 -55 -23 -55 -12 0 -24 -4 -27 -8 -3 -5 11 -7 30 -6 19 2
34 -1 34 -6 0 -6 5 -10 11 -10 8 0 8 4 0 14 -22 26 6 26 30 0 16 -17 20 -27
12 -32 -8 -5 -9 -13 -3 -22 8 -12 10 -12 10 4 0 11 3 16 7 12 4 -4 8 -15 8
-23 0 -9 7 -18 15 -20 13 -4 13 -3 0 7 -11 9 -12 13 -2 17 16 6 15 21 -3 40
-9 8 -13 23 -11 32 3 9 1 23 -5 31 -8 12 -9 9 -4 -10 l6 -25 -21 25 c-11 14
-29 37 -40 52 l-20 26 47 16 c32 11 69 36 111 76 34 33 66 60 70 60 4 0 52
-91 106 -202 117 -243 187 -349 332 -504 23 -24 39 -46 36 -48 -3 -3 4 -9 14
-12 26 -10 74 -55 74 -71 0 -7 5 -13 12 -13 6 0 21 -9 32 -19 36 -34 50 -30
52 11 0 31 -2 36 -13 26 -10 -8 -18 -7 -31 4 -9 8 -25 18 -35 21 -14 5 -16 11
-7 26 13 25 13 28 -5 34 -8 4 -17 2 -20 -4 -4 -5 -2 -8 3 -7 10 3 16 -10 7
-14 -9 -5 -85 94 -79 103 3 5 1 8 -4 7 -14 -5 -64 60 -56 73 4 7 3 9 -3 6 -17
-11 -84 83 -77 107 3 12 2 16 -3 10 -6 -9 -11 -8 -21 2 -12 14 -12 15 7 18 5
0 13 4 16 8 4 4 -3 5 -16 3 -21 -3 -33 10 -94 102 -38 58 -77 117 -85 132 -8
14 -32 53 -52 86 -20 33 -43 77 -51 98 l-16 37 54 35 c55 35 149 85 160 85 4
0 5 -10 3 -22 -2 -18 1 -22 16 -20 34 6 66 36 91 83 42 80 49 81 110 16 29
-32 56 -64 59 -72 9 -24 39 -19 31 5 -4 12 -2 20 5 20 6 0 9 -3 7 -8 -3 -4 2
-14 11 -22 14 -13 15 -12 9 3 -5 14 -3 17 11 13 9 -3 23 -2 30 2 9 6 5 12 -13
20 -15 7 -24 8 -21 4 3 -5 -9 -9 -27 -8 -32 1 -44 11 -79 67 l-16 26 39 -21
c21 -11 39 -27 39 -33 0 -18 -10 -16 -27 5 -13 15 -13 15 -3 -6 8 -17 17 -21
39 -17 16 3 45 -2 64 -10 24 -10 38 -11 42 -4 10 16 -16 40 -36 34 -11 -4 -19
-3 -19 2 0 4 -27 25 -60 47 -33 21 -60 46 -60 55 0 14 -2 14 -10 1 -8 -13 -10
-12 -10 3 0 9 -4 17 -10 17 -5 0 -6 9 -1 22 8 21 -10 91 -55 223 -7 21 -11 41
-9 43 8 8 64 -55 57 -63 -4 -5 1 -5 10 -2 10 3 20 2 23 -3 9 -15 45 -12 45 4
0 7 -6 19 -14 25 -8 7 -13 26 -12 46 2 20 -1 32 -7 28 -5 -3 -13 1 -18 8 -6 9
-9 10 -9 2 0 -6 7 -19 16 -28 9 -9 15 -18 13 -20 -2 -2 -25 15 -50 38 -25 23
-78 69 -117 102 -57 48 -68 63 -61 77 13 24 12 26 -18 25 -25 0 -26 0 -8 -13
10 -8 16 -17 12 -20 -3 -3 -24 9 -47 27 -23 19 -37 35 -31 37 6 2 11 8 11 14
0 6 -6 6 -15 -2 -21 -17 -70 23 -71 58 -2 56 -4 63 -15 56 -8 -4 -8 -9 0 -17
17 -17 13 -31 -4 -17 -20 16 -19 3 0 -17 9 -8 14 -18 11 -21 -9 -8 -77 48
-160 133 -67 69 -87 97 -141 208 -59 119 -63 130 -53 165 17 61 44 90 102 108
33 11 61 14 72 9 11 -5 42 -16 69 -25 28 -8 50 -21 50 -27 0 -7 6 -18 13 -24
8 -9 12 -9 12 -2 0 6 -6 14 -12 16 -9 4 -8 6 2 6 8 0 39 -13 69 -30 51 -29 53
-32 36 -45 -22 -16 -12 -19 15 -4 15 8 28 1 75 -41 36 -34 54 -57 51 -68 -5
-16 30 -68 39 -59 3 2 -5 15 -16 27 -12 12 -18 25 -15 28 3 4 8 4 9 2 6 -7 97
-123 105 -134 4 -5 19 -30 34 -55 14 -25 36 -56 48 -70 33 -38 111 -160 107
-168 -3 -4 2 -20 9 -37 7 -16 13 -24 14 -17 0 7 -5 23 -11 35 -6 13 4 7 25
-16 19 -20 33 -44 30 -51 -3 -8 0 -17 7 -22 9 -5 10 -2 6 9 -3 10 -2 17 3 17
6 0 10 -7 10 -15 0 -8 5 -15 11 -15 5 0 7 4 4 10 -3 5 -1 10 4 10 6 0 11 -4
11 -8 0 -5 6 -9 14 -9 8 0 14 5 13 11 -1 6 5 11 13 11 8 0 14 -5 13 -12 -2 -7
3 -10 11 -7 12 4 11 9 -5 25 -11 11 -24 17 -29 14 -6 -3 -7 2 -4 12 5 14 4 15
-4 4 -6 -8 -8 -20 -5 -28 3 -7 2 -13 -2 -13 -11 0 -29 21 -71 85 -57 84 -61
93 -36 71 12 -11 22 -25 22 -33 0 -8 5 -11 10 -8 6 4 26 -9 45 -28 19 -19 35
-33 35 -30 0 3 15 -8 33 -23 17 -16 32 -32 32 -35 0 -3 6 -13 13 -22 8 -9 11
-21 7 -26 -3 -7 0 -8 9 -5 20 8 20 14 -1 30 -10 7 -13 13 -8 13 6 0 30 -18 55
-41 29 -26 35 -35 17 -24 -16 10 -31 15 -34 13 -3 -3 8 -12 25 -21 16 -8 32
-13 35 -10 5 5 93 -51 102 -67 9 -14 -6 -11 -25 6 -14 13 -16 12 -16 -4 0 -13
7 -17 29 -16 34 2 58 -19 51 -43 -5 -13 -4 -14 4 -4 7 11 19 5 55 -28 25 -23
44 -47 43 -54 -2 -6 -1 -8 1 -3 8 14 25 7 19 -8 -3 -8 -1 -15 3 -15 5 0 21
-29 35 -65 20 -50 24 -70 16 -85 -14 -27 -12 -37 3 -16 12 16 15 10 26 -51 7
-37 15 -79 18 -92 4 -16 2 -22 -5 -17 -7 4 -5 -5 3 -21 8 -15 29 -62 46 -103
17 -41 37 -82 44 -90 7 -8 12 -22 12 -30 1 -8 4 -24 9 -34 4 -12 4 -17 -2 -13
-5 3 -10 -2 -10 -12 0 -12 9 -17 34 -18 21 0 29 2 22 7 -7 5 -19 6 -27 3 -7
-3 -13 0 -13 6 0 6 5 11 10 11 6 0 3 12 -7 28 -21 34 -17 30 115 -110 101
-107 165 -209 165 -265 0 -12 2 -23 6 -23 12 0 30 -83 47 -212 21 -158 12
-216 -51 -346 -25 -52 -45 -98 -45 -103 0 -5 158 -9 379 -9 l379 0 11 31 c13
39 14 157 2 247 -22 151 -61 638 -61 749 l0 60 53 -13 c28 -7 99 -26 157 -43
58 -18 128 -35 155 -39 36 -6 49 -12 46 -23 -38 -147 -18 -203 104 -283 150
-100 220 -125 360 -132 88 -5 155 -18 155 -30 0 -11 -94 -164 -101 -164 -4 0
-31 21 -61 46 -119 102 -213 150 -278 141 -94 -12 -208 -89 -241 -162 -41 -89
-5 -235 83 -348 l30 -37 414 0 c228 0 414 3 414 6 0 3 -6 11 -12 19 -7 7 -35
41 -62 74 -27 33 -76 80 -109 103 -33 24 -69 50 -81 60 l-21 16 39 81 c22 44
49 92 60 106 l21 26 102 -54 c108 -57 264 -120 325 -131 34 -6 88 -48 205
-160 l23 -21 -19 -62 -19 -63 854 0 c470 0 854 2 854 4 0 3 -16 49 -36 103
-78 212 -91 252 -84 265 4 7 11 24 14 38 6 19 5 21 -3 10 -9 -13 -11 -12 -12
5 -1 11 -1 24 0 28 1 5 -3 6 -9 2 -5 -3 -10 2 -11 12 0 11 -3 13 -6 5 -3 -7 1
-19 7 -27 7 -8 9 -23 5 -32 -6 -16 -8 -15 -20 7 -8 14 -10 32 -5 45 4 11 15
66 25 122 11 62 22 100 28 96 6 -3 7 -1 3 5 -8 13 22 151 36 169 8 9 6 13 -6
13 -9 0 -16 -2 -16 -4 0 -9 -51 -201 -74 -279 -14 -48 -26 -90 -26 -94 0 -4
-7 3 -16 15 -9 13 -13 31 -9 45 5 16 4 18 -4 8 -7 -12 -15 -8 -37 20 -16 19
-47 52 -69 74 l-40 40 51 47 c39 37 53 45 62 36 9 -9 12 -9 12 -1 0 6 -6 13
-12 16 -22 8 28 52 103 91 65 34 69 35 69 16 0 -12 4 -19 10 -15 5 3 7 12 3
20 -3 8 1 15 8 15 7 0 10 3 7 6 -3 3 14 24 38 46 41 38 44 44 44 92 1 50 1 51
18 30 64 -80 112 -156 106 -166 -4 -6 -3 -8 3 -5 6 4 18 -19 29 -51 10 -31 21
-61 25 -67 6 -9 13 -39 55 -225 8 -36 19 -99 23 -140 35 -298 62 -440 87 -440
19 0 18 11 -11 269 -62 556 -100 675 -281 870 l-57 62 12 187 c6 103 18 232
26 287 19 129 19 220 0 280 l-14 49 41 75 c22 42 49 92 59 111 24 46 49 243
49 385 0 65 6 132 15 165 18 66 19 182 2 229 -21 61 -55 76 -165 75 -79 0
-105 -4 -138 -22 -57 -29 -166 -161 -201 -243 -6 -14 -14 -73 -18 -130 -10
-170 -8 -165 -70 -194 -61 -29 -132 -102 -165 -169 -23 -49 -40 -136 -40 -213
0 -47 -3 -54 -28 -67 -15 -8 -56 -36 -91 -61 l-62 -48 -32 29 c-18 16 -34 30
-35 31 -2 1 12 33 31 72 100 199 56 312 -129 336 -58 8 -155 -12 -240 -50
l-59 -26 -37 43 c-21 24 -58 68 -82 99 l-45 56 72 50 c77 54 140 115 209 201
38 48 58 61 177 118 74 35 142 70 150 79 16 16 19 97 11 280 -1 33 1 95 5 138
7 72 9 77 28 71 17 -5 19 -3 12 12 -5 11 -20 59 -34 108 -22 76 -34 98 -74
143 -27 29 -83 74 -125 99 -321 195 -315 191 -344 252 -20 44 -25 67 -21 98 3
26 -4 74 -22 143 -22 84 -25 107 -16 125 10 19 6 41 -29 142 -54 156 -60 223
-30 349 19 85 21 118 18 276 -2 149 -6 181 -20 195 -15 15 -14 21 8 87 13 39
31 78 39 87 8 9 15 31 15 50 0 27 -13 46 -82 117 -46 47 -129 125 -186 174
l-102 89 -68 0 -67 -1 46 -42 c61 -55 299 -271 358 -323 43 -39 45 -43 30 -60
-9 -11 -24 -32 -32 -49 -9 -16 -20 -36 -25 -44 -8 -10 -45 13 -168 107 -88 65
-224 163 -304 217 -127 86 -161 103 -270 141 -139 47 -145 57 -12 19 117 -33
182 -56 276 -99 43 -20 80 -35 82 -34 6 6 -110 81 -191 124 l-84 44 -820 0
-819 0 -32 -37z m230 -68 c0 -2 -30 -50 -67 -107 -36 -56 -81 -132 -98 -168
-34 -68 -88 -227 -99 -294 l-7 -38 38 6 c21 4 75 16 119 27 73 17 164 26 153
15 -2 -3 -77 -25 -165 -49 -143 -40 -192 -58 -311 -114 -18 -8 -33 -19 -33
-24 0 -5 -4 -9 -8 -9 -16 0 1 156 27 250 33 116 116 263 200 353 32 34 69 75
82 90 17 20 45 34 89 47 72 21 80 22 80 15z m1705 -200 c72 -48 188 -133 259
-189 72 -56 134 -104 139 -107 5 -3 15 -62 24 -130 13 -105 13 -140 3 -224 -7
-55 -16 -103 -19 -107 -4 -5 -13 9 -20 30 -27 77 -75 208 -88 241 -23 55 -25
29 -3 -40 30 -91 65 -231 105 -405 19 -84 37 -164 41 -180 l7 -28 -34 25 c-19
13 -65 50 -104 82 -38 32 -77 63 -85 70 -8 7 -37 31 -65 54 -48 39 -161 103
-183 103 -6 0 -13 4 -17 9 -3 5 -14 101 -25 213 -24 250 -47 380 -104 598 -33
124 -33 128 7 98 17 -14 91 -65 162 -113z m-1985 -567 c0 -29 3 -76 6 -104 l7
-52 -114 -35 c-62 -20 -114 -35 -116 -34 -7 7 20 132 32 150 17 24 156 127
173 127 8 0 12 -17 12 -52z m1089 -87 c22 -6 21 -8 -20 -21 -24 -7 -50 -18
-56 -23 -9 -6 -15 -4 -19 7 -3 9 -10 16 -16 16 -5 0 -7 -4 -3 -10 7 -12 -52
-43 -67 -34 -6 4 -8 3 -4 -4 3 -6 -6 -13 -24 -17 -39 -8 -130 -97 -159 -152
-23 -46 -28 -102 -9 -121 15 -15 7 -24 -11 -13 -7 5 -14 20 -14 35 -1 14 -6
26 -11 26 -4 0 -5 -12 -2 -26 6 -23 5 -25 -16 -19 -37 12 -55 38 -69 98 -6 32
-16 57 -20 57 -12 0 -24 -22 -25 -45 -2 -60 -5 -75 -14 -75 -5 0 -11 19 -12
43 -1 38 -2 39 -5 9 -3 -19 2 -48 11 -66 8 -17 16 -42 18 -56 2 -14 7 -31 12
-38 10 -16 -7 -37 -22 -28 -6 3 -8 15 -5 26 3 11 0 20 -6 20 -6 0 -11 -8 -11
-17 0 -14 -3 -13 -21 6 -11 12 -18 29 -15 37 3 9 2 12 -5 8 -6 -3 -19 3 -30
15 -25 27 -24 34 4 25 12 -3 19 -3 14 1 -4 5 -17 9 -30 11 -12 1 -25 3 -29 3
-5 1 -8 8 -8 16 0 9 -7 18 -15 21 -10 4 -13 13 -10 25 4 11 2 19 -4 19 -6 0
-11 -18 -11 -40 0 -36 -2 -40 -25 -40 -14 0 -25 3 -25 8 0 10 -58 35 -68 28
-5 -3 -19 4 -30 15 -12 11 -22 17 -22 13 0 -3 -11 1 -24 10 -36 23 -106 46
-142 46 -30 0 -58 28 -31 32 21 2 32 5 47 11 40 16 123 36 131 31 5 -3 17 -1
26 4 28 14 81 25 63 12 -8 -5 -10 -10 -4 -10 5 0 15 5 20 10 14 14 203 52 216
44 12 -8 183 -16 175 -8 -2 3 -39 7 -81 8 -72 3 -122 16 -60 16 16 0 45 4 64
10 19 5 55 12 80 15 25 4 56 9 70 11 112 21 310 29 359 15z m449 -121 c2 0 0
-6 -4 -12 -5 -10 -4 -10 5 -2 23 21 78 -7 153 -76 71 -65 134 -107 145 -96 3
3 -9 23 -26 44 -36 46 -42 73 -8 42 12 -12 33 -28 47 -35 58 -31 118 -108 145
-187 15 -43 31 -78 35 -78 4 0 13 28 20 63 8 34 15 55 17 46 3 -12 21 -19 60
-25 44 -7 60 -15 76 -36 19 -25 19 -32 8 -85 -7 -32 -23 -74 -36 -93 -13 -19
-31 -53 -40 -75 l-17 -40 34 33 c19 18 37 30 41 27 4 -3 5 -2 2 2 -3 4 15 27
39 52 34 35 46 55 48 83 l3 38 39 -35 c21 -20 50 -43 64 -53 23 -15 112 -185
112 -215 1 -28 -59 -125 -107 -175 -43 -45 -55 -53 -75 -47 -31 10 -101 68
-140 116 -17 21 -38 39 -45 39 -8 0 -12 -4 -8 -10 3 -5 -8 -16 -25 -25 -55
-28 -28 -75 34 -59 19 4 26 2 26 -8 0 -8 25 -67 55 -131 30 -64 64 -144 75
-177 19 -57 19 -64 6 -123 -8 -34 -26 -86 -40 -114 -15 -29 -26 -65 -26 -79 0
-17 -6 -28 -20 -31 -11 -3 -20 -9 -20 -14 0 -21 -20 -6 -26 19 -8 37 -35 114
-39 110 -2 -2 0 -22 6 -46 13 -61 38 -246 34 -251 -5 -5 -4 -8 -50 137 -20 61
-40 112 -46 112 -5 0 -9 6 -9 13 0 6 -11 33 -25 58 -13 26 -32 66 -42 90 -9
24 -32 63 -50 87 -18 24 -36 54 -39 68 -7 27 -6 26 -28 18 -9 -3 -16 -15 -16
-25 0 -10 -6 -20 -12 -20 -7 -1 -20 -2 -28 -3 -8 0 -14 -8 -12 -17 2 -15 -100
-76 -233 -138 -27 -13 -58 -27 -67 -32 -23 -12 -38 -11 -38 1 0 6 7 10 16 10
8 0 12 5 9 10 -10 16 -37 -10 -32 -30 5 -19 -15 -39 -40 -41 -10 -1 -2 -5 17
-10 27 -6 20 -7 -27 -4 -57 4 -87 -5 -64 -20 6 -3 20 -20 33 -38 12 -18 16
-27 8 -21 -8 7 -30 15 -47 19 -18 3 -33 11 -33 16 0 12 27 11 33 -1 3 -6 4 -5
3 2 -1 7 -12 14 -24 16 -12 2 -22 8 -22 14 0 5 7 8 15 4 8 -3 15 -1 15 3 0 5
-6 12 -12 14 -7 3 -3 6 9 6 12 1 24 5 28 10 3 5 -6 8 -21 7 -14 -2 -29 -8 -33
-14 -4 -7 -18 8 -34 39 -15 27 -25 54 -22 60 4 5 -1 12 -9 15 -10 4 -16 19
-17 38 0 26 -2 28 -9 11 -7 -19 -9 -18 -19 8 -6 15 -15 27 -21 27 -5 0 -10 7
-10 15 0 8 7 15 15 15 8 0 15 -7 15 -15 0 -8 5 -15 10 -15 14 0 13 13 -2 28
-10 10 -10 15 2 22 13 8 13 10 -1 10 -9 0 -22 -7 -29 -15 -17 -21 -27 -19 -35
6 -10 31 -120 139 -142 139 -10 0 -28 7 -40 15 -12 9 -27 14 -34 13 -6 -2 -16
11 -21 27 -5 17 -17 57 -28 90 -20 65 -32 145 -22 145 4 0 16 -7 26 -15 17
-13 18 -18 7 -39 -8 -13 -11 -30 -8 -38 3 -8 10 0 17 20 14 38 14 38 65 12 22
-11 32 -20 22 -20 -9 0 -17 -4 -17 -8 0 -4 16 -8 37 -8 20 0 31 2 25 4 -7 2
-12 8 -12 13 0 6 9 5 21 -2 21 -11 169 -24 169 -15 0 3 -18 15 -40 26 -43 22
-120 88 -120 103 0 6 -7 15 -15 21 -9 7 -12 16 -6 25 7 11 17 6 47 -23 20 -20
41 -36 47 -36 5 0 3 -7 -4 -16 -12 -15 -11 -16 6 -10 12 3 37 -2 59 -14 22
-10 64 -22 96 -26 102 -11 239 40 223 84 -5 11 -2 14 10 9 9 -3 17 -2 17 3 0
6 -8 10 -17 11 -16 0 -16 1 1 8 14 5 16 10 7 15 -9 6 -9 11 0 22 14 18 5 30
-14 18 -7 -5 1 2 17 16 17 14 55 49 85 78 30 28 59 52 63 52 4 0 8 5 8 10 0
24 -34 6 -95 -49 -69 -63 -147 -107 -166 -95 -8 4 -9 3 -5 -4 7 -12 3 -13 -84
-17 -58 -3 -212 19 -236 34 -16 9 -14 10 11 5 l30 -7 -39 43 c-35 39 -38 46
-32 84 14 87 95 153 224 182 85 19 134 11 220 -37 28 -16 52 -26 52 -22 1 5 7
-4 15 -19 24 -43 -5 -98 -80 -151 l-30 -22 21 30 c28 40 34 69 23 110 -14 51
-79 89 -79 48 -1 -18 -22 -53 -33 -53 -13 0 -38 62 -32 79 8 25 -40 34 -77 15
-65 -34 -92 -116 -60 -187 18 -41 25 -47 77 -63 l57 -18 -38 -18 c-22 -10 -30
-16 -19 -14 11 3 45 10 76 16 75 15 165 70 213 131 25 33 44 49 57 47 10 -2
18 0 19 5 0 4 0 12 0 18 0 6 -25 35 -55 64 -38 36 -53 58 -49 69 3 9 11 13 16
10 6 -4 5 -10 -3 -16 -10 -7 -8 -8 7 -3 16 4 32 -4 59 -30 43 -40 45 -41 45
-17 -1 19 -44 72 -59 72 -6 0 -25 9 -43 21 -18 11 -24 18 -13 15 18 -5 20 -2
17 39 -3 33 0 45 9 45 8 1 -14 14 -48 30 -60 29 -68 30 -224 32 -90 2 -150 5
-133 8 17 3 29 11 29 20 0 15 19 28 43 29 7 1 10 -3 7 -9 -8 -13 -2 -13 32 2
60 26 145 35 193 21 25 -7 46 -13 48 -13z m-1674 -161 c-21 -23 -16 -24 34 -4
33 14 45 14 93 1 52 -13 53 -14 24 -21 -131 -30 -149 -37 -182 -68 -33 -30
-63 -76 -63 -94 0 -4 7 1 15 11 19 25 25 18 50 -52 13 -33 26 -56 34 -54 7 1
10 -1 8 -5 -3 -5 1 -16 8 -26 13 -17 16 -16 55 23 23 23 57 48 76 56 40 17 84
18 84 3 0 -6 -6 -9 -14 -6 -8 3 -22 -1 -33 -8 -16 -12 -13 -12 22 -4 22 6 54
12 70 15 29 3 29 3 5 -6 -23 -9 -22 -9 10 -6 19 2 48 -2 64 -9 28 -12 25 -12
-37 -11 -36 1 -69 4 -72 7 -10 11 -102 -19 -145 -46 -38 -24 -55 -50 -75 -113
-6 -20 -4 -23 12 -18 25 8 60 -49 37 -62 -12 -6 -13 -14 -5 -35 6 -14 8 -45 6
-69 -2 -24 -1 -35 2 -25 2 9 9 17 14 17 6 0 8 17 4 44 -7 41 -6 44 13 39 11
-3 26 -19 33 -36 18 -42 77 -107 98 -107 9 0 23 -6 29 -12 9 -9 15 -10 20 -2
4 6 16 14 27 17 18 6 18 5 -2 -12 -13 -11 -23 -24 -23 -30 0 -6 -5 -11 -12
-11 -6 0 -9 -3 -6 -6 4 -3 16 -1 27 5 16 9 29 8 57 -4 21 -8 35 -18 31 -21 -3
-3 -14 -1 -25 5 -12 6 -24 11 -29 11 -4 -1 4 -8 20 -16 31 -17 54 -10 37 11
-7 8 -9 18 -6 23 3 4 -8 6 -25 4 -39 -6 -37 6 12 53 58 58 94 119 125 215 15
47 29 80 31 74 2 -6 -8 -47 -22 -90 -13 -43 -25 -93 -25 -109 0 -41 -17 -97
-32 -106 -7 -4 -18 -3 -25 3 -9 7 -13 7 -13 -1 0 -11 5 -13 33 -15 7 -1 14
-24 18 -61 4 -33 9 -69 11 -80 3 -11 -1 -30 -9 -42 -24 -37 -53 -145 -53 -200
0 -28 -5 -55 -11 -58 -6 -4 -8 -13 -5 -21 3 -8 1 -14 -4 -14 -5 0 -12 -17 -16
-37 -4 -21 -9 -42 -13 -48 -3 -5 -6 -14 -6 -20 -1 -5 -7 -23 -14 -40 l-14 -30
-10 35 c-14 49 -74 177 -87 185 -5 3 -7 11 -4 17 4 6 3 8 -3 5 -12 -8 -176
158 -196 198 -9 19 -19 92 -26 205 -18 279 -16 268 -58 328 -22 32 -38 68 -39
86 0 17 -4 46 -8 64 -6 27 -10 31 -22 21 -19 -16 -18 -5 6 41 11 22 20 48 20
59 0 33 19 64 57 93 39 30 65 28 37 -3z m855 -240 c-6 -19 -13 -41 -15 -49 -5
-13 -6 -13 -15 0 -9 12 -10 12 -5 -3 9 -29 -10 -56 -36 -51 -13 2 -16 1 -8 -2
8 -4 21 -12 29 -18 12 -9 13 -8 6 3 -5 10 -4 12 3 7 7 -4 12 -16 12 -27 0 -11
5 -17 10 -14 6 3 10 -1 10 -9 0 -8 7 -36 16 -61 8 -25 17 -86 19 -136 5 -87 6
-91 40 -127 19 -20 35 -41 35 -47 1 -5 16 -27 35 -49 29 -32 38 -37 60 -32 17
4 24 3 20 -4 -3 -5 -12 -10 -19 -10 -8 0 -19 -7 -27 -16 -11 -14 -9 -15 22
-12 34 3 34 3 31 -34 -2 -21 1 -38 6 -38 6 0 12 -6 15 -12 5 -17 -1 16 -9 45
-10 35 12 8 32 -38 9 -22 13 -37 9 -33 -4 4 -14 1 -22 -7 -17 -18 -69 -20 -79
-4 -3 6 -1 15 6 19 7 4 9 13 5 21 -11 17 -27 -24 -19 -49 5 -14 4 -15 -5 -2
-5 9 -8 29 -6 45 4 35 -3 65 -15 65 -4 0 -28 -27 -52 -60 -23 -33 -49 -58 -55
-55 -7 2 -12 1 -12 -3 5 -33 -3 -42 -38 -42 -28 0 -34 -3 -23 -10 12 -8 9 -10
-12 -10 -15 0 -30 -5 -33 -10 -6 -9 -47 -8 -160 6 -29 3 -36 1 -25 -6 8 -5 42
-10 75 -11 53 -1 56 -2 23 -8 -20 -4 -59 -6 -87 -4 -32 3 -51 1 -51 -6 0 -19
58 -41 107 -41 44 0 196 38 226 57 36 22 77 69 82 94 8 38 26 38 19 0 -7 -33
10 -41 88 -41 42 0 48 3 54 25 7 26 24 35 24 11 0 -21 -86 -96 -137 -118 -28
-12 -41 -23 -34 -27 8 -5 -3 -18 -30 -36 -30 -19 -40 -23 -36 -11 8 21 -4 20
-45 -3 -18 -10 -67 -24 -108 -30 l-75 -11 -95 48 c-115 57 -130 79 -130 188 0
71 14 134 30 134 5 0 12 21 15 48 4 26 10 70 15 97 5 28 16 118 24 201 17 160
40 248 65 239 7 -3 19 -1 26 5 20 17 108 14 143 -4 32 -16 32 -16 32 8 0 14 6
29 13 33 7 4 19 23 26 41 17 42 24 36 10 -9z m-616 -102 c-3 -27 1 -57 11 -81
9 -21 16 -41 16 -43 0 -3 -32 -3 -71 -1 -55 3 -74 8 -85 23 -34 46 -1 91 91
128 22 9 41 16 41 16 1 1 -1 -18 -3 -42z m2470 -459 c49 -114 82 -241 94 -363
l7 -80 7 50 c13 90 9 179 -10 260 -11 44 -18 82 -15 84 2 2 12 -2 21 -11 10
-8 54 -36 98 -63 90 -55 249 -209 272 -263 21 -49 11 -48 -25 3 -17 25 -36 45
-42 45 -13 0 -14 1 15 -64 22 -50 42 -130 37 -148 -1 -3 -4 -55 -6 -114 -5
-102 -7 -110 -33 -135 -37 -35 -221 -96 -361 -119 -59 -9 -110 -15 -114 -13
-5 2 -9 68 -10 146 -1 78 -3 124 -5 102 -10 -117 -44 -255 -63 -255 -4 0 -10
136 -12 303 -5 295 -6 304 -33 392 -41 132 -40 131 -13 138 38 10 75 53 97
112 12 31 21 62 21 69 0 14 9 26 21 26 4 0 27 -46 52 -102z m-2680 -225 c-5
-2 -32 -20 -60 -41 -28 -20 -74 -53 -102 -72 -47 -33 -50 -39 -61 -97 -13 -66
-33 -83 -49 -40 -15 39 -22 113 -14 135 5 12 58 60 118 105 l110 84 34 -36
c18 -19 30 -36 24 -38z m1197 -28 c28 -9 50 -29 50 -45 0 -6 5 -8 11 -4 17 10
0 -39 -20 -55 -15 -13 -15 -13 2 -8 12 5 17 1 17 -13 0 -11 5 -20 10 -20 13 0
13 27 0 35 -8 5 -7 11 1 21 10 12 14 9 28 -15 50 -90 61 -108 80 -128 12 -12
21 -24 21 -27 0 -10 -65 7 -72 18 -5 8 -8 8 -8 0 0 -6 39 -37 86 -69 126 -85
188 -139 250 -214 68 -82 101 -150 108 -221 3 -36 3 -45 -3 -25 -4 17 -26 67
-50 111 -60 117 -212 276 -238 250 -3 -3 10 -18 29 -35 41 -38 22 -41 -24 -4
-18 16 -37 31 -43 35 -12 9 -115 96 -130 110 -5 5 25 -7 69 -26 85 -39 86 -27
3 26 -53 33 -157 111 -215 160 -18 15 -44 28 -57 28 -33 0 -39 15 -7 17 14 0
31 8 38 17 14 20 28 21 20 0 -3 -8 -2 -12 4 -9 9 5 4 98 -7 120 -2 6 1 3 9 -6
7 -9 24 -20 38 -24z m-1009 -132 c35 -30 84 -127 72 -146 -4 -7 -9 -4 -14 9
-6 15 -8 13 -7 -11 0 -16 -2 -46 -6 -65 -4 -24 -3 -30 3 -20 5 8 7 18 4 24 -3
5 -1 6 6 2 9 -6 6 -16 -8 -39 -29 -48 -61 -147 -60 -187 0 -34 1 -34 13 13 8
29 27 63 48 85 19 20 55 69 81 107 25 39 60 84 78 100 29 26 31 27 16 5 -85
-123 -107 -162 -91 -159 5 1 12 1 15 0 9 -1 -48 -139 -64 -156 -30 -30 -28
-216 3 -325 6 -19 10 -49 10 -65 0 -17 4 -35 9 -40 6 -6 14 -28 20 -50 11 -47
82 -240 100 -274 21 -38 5 -34 -27 6 -90 115 -167 258 -188 353 -29 126 -34
139 -49 134 -31 -12 -32 216 -1 403 13 79 6 100 -15 46 -16 -42 -23 -17 -9 31
7 25 13 90 14 145 0 56 4 101 8 101 3 0 21 -12 39 -27z m-826 -154 c44 -5 148
-12 230 -14 211 -8 296 -15 290 -26 -3 -5 -36 -27 -74 -49 l-67 -40 -125 0
c-68 0 -187 7 -264 15 -339 36 -374 38 -545 25 -160 -11 -268 -33 -276 -55 -5
-11 57 -192 147 -434 27 -73 48 -139 46 -145 -2 -6 -11 5 -19 24 -17 40 -249
523 -254 528 -1 2 -12 -13 -24 -35 l-21 -38 5 69 c8 99 -10 72 -32 -50 -10
-54 -29 -119 -42 -144 -17 -33 -98 -161 -125 -198 -1 -1 -21 5 -45 13 -23 8
-53 15 -66 15 -13 0 -24 5 -24 12 0 26 193 314 277 414 50 59 55 61 258 93
231 38 532 45 750 20z m725 -51 l0 -73 -48 -27 c-26 -14 -81 -36 -122 -48 -41
-12 -102 -37 -136 -55 -34 -18 -92 -42 -130 -53 -38 -12 -109 -37 -158 -57
-48 -20 -90 -34 -92 -32 -2 1 45 28 104 58 59 29 136 74 172 97 36 24 81 50
100 58 19 8 75 45 125 83 99 74 166 119 178 120 4 1 7 -32 7 -71z m4004 -357
c3 -5 -9 -12 -27 -15 -23 -4 -38 -15 -48 -34 -8 -15 -28 -47 -44 -72 -17 -25
-36 -56 -42 -70 -15 -33 -43 -199 -45 -272 -2 -32 -4 -58 -6 -58 -1 0 -13 7
-26 15 -12 8 -44 17 -70 19 -27 3 -51 7 -53 10 -3 3 4 36 15 73 11 37 22 87
25 109 6 52 49 150 93 212 47 65 95 92 166 92 31 0 59 -4 62 -9z m-3410 -130
c38 -25 45 -26 190 -26 l151 0 70 35 c39 19 73 37 78 38 4 2 7 -1 7 -7 0 -7
-8 -15 -17 -18 -10 -4 -20 -10 -23 -13 -3 -4 -30 -21 -61 -39 -53 -29 -61 -31
-165 -31 -163 0 -240 9 -264 32 -11 10 -24 17 -29 13 -5 -3 -7 3 -4 14 3 10 0
22 -6 25 -6 4 -11 12 -11 17 0 11 25 -1 84 -40z m1472 -167 c-8 -60 -24 -192
-36 -294 -22 -203 -36 -306 -81 -600 -33 -220 -43 -319 -31 -305 5 6 19 66 31
135 13 69 29 148 36 175 7 28 17 68 21 90 l7 40 14 -35 c24 -56 29 -280 9
-359 -23 -90 -52 -152 -68 -146 -18 7 -123 -61 -108 -70 6 -4 31 9 55 29 45
38 67 47 44 20 -23 -27 -168 -117 -155 -95 5 8 -14 10 -66 6 -69 -5 -71 -4
-43 9 l30 15 -27 1 c-27 0 -41 19 -15 21 9 0 9 2 -1 6 -22 9 -33 53 -37 148
-3 49 -9 91 -15 93 -13 5 -12 378 1 407 6 13 7 4 3 -30 l-7 -50 22 27 c24 30
26 44 9 51 -10 3 -9 9 2 23 30 38 41 67 40 102 -3 61 -1 70 10 52 11 -17 13
-1 4 25 -6 13 -9 14 -16 3 -8 -11 -10 -11 -15 1 -4 11 -7 11 -14 0 -4 -7 -10
-11 -12 -9 -2 3 4 19 15 35 15 23 18 25 13 8 -4 -14 -2 -23 4 -23 6 0 11 6 11
13 0 8 3 7 10 -3 5 -8 12 -11 16 -8 12 13 23 93 14 102 -10 10 -34 -40 -31
-64 2 -13 0 -13 -8 -1 -9 14 23 85 55 122 8 8 14 23 14 32 0 9 5 19 10 22 6 3
10 11 10 17 0 6 -11 1 -25 -12 -14 -13 -25 -27 -25 -32 0 -4 -9 -22 -19 -39
l-19 -31 3 32 c2 32 57 100 81 100 6 0 18 8 25 18 13 16 13 16 -6 2 -11 -8 12
19 50 61 39 41 104 120 145 176 41 55 76 100 78 98 2 -1 -4 -52 -12 -111z
m248 -36 c30 -40 77 -99 103 -131 39 -48 45 -60 33 -69 -13 -8 -13 -9 1 -5 10
3 35 -17 72 -58 56 -62 68 -85 46 -85 -6 0 -8 7 -5 17 6 15 4 14 -14 -2 -21
-19 -21 -19 -15 12 3 18 2 34 -3 37 -4 2 -7 -12 -7 -31 0 -32 3 -36 27 -39 15
-1 30 2 34 7 3 6 13 1 22 -12 15 -21 14 -23 -9 -38 -13 -9 -56 -44 -96 -78
l-71 -62 -147 146 c-80 81 -144 151 -142 157 3 6 25 64 51 128 25 64 49 131
52 148 4 16 8 30 9 30 1 0 28 -33 59 -72z m1386 -238 c0 -5 -3 -10 -7 -10 -5
0 -24 -14 -43 -31 -19 -17 -42 -36 -51 -43 -8 -6 -32 -58 -53 -116 -35 -101
-37 -110 -31 -195 3 -50 10 -125 16 -167 5 -42 9 -91 9 -110 0 -18 6 -75 15
-126 15 -86 15 -98 0 -170 -10 -42 -21 -97 -26 -121 -15 -74 -29 -121 -37
-121 -4 0 -20 41 -36 90 -27 86 -28 95 -17 160 6 38 11 107 11 154 0 68 3 86
14 86 8 0 18 -4 21 -10 7 -11 45 -33 45 -27 0 2 -13 21 -30 42 -36 46 -76 166
-89 272 -7 58 -6 103 4 174 19 137 47 183 149 244 59 34 136 49 136 25z m-706
-104 c32 -8 63 -20 68 -27 17 -25 2 -141 -26 -199 -14 -30 -26 -51 -26 -46 0
5 -9 1 -20 -9 -13 -12 -18 -26 -15 -44 4 -20 3 -21 -3 -7 -8 18 -10 17 -31 -9
-12 -16 -19 -35 -16 -42 2 -8 1 -11 -5 -8 -5 3 -16 -8 -25 -25 -9 -17 -25 -40
-37 -52 -15 -15 -17 -23 -9 -31 9 -9 14 -8 21 3 5 8 10 11 10 7 0 -5 -10 -21
-21 -35 -19 -24 -21 -24 -15 -5 8 25 -7 39 -22 20 -20 -24 -64 -109 -53 -103
7 5 9 1 5 -8 -3 -9 -9 -16 -14 -16 -4 0 -15 -18 -25 -40 -10 -22 -24 -45 -31
-51 -8 -7 -10 -18 -5 -32 9 -24 -4 -40 -76 -94 -21 -15 -44 -36 -51 -46 -25
-33 -219 -106 -245 -91 -6 4 -9 3 -5 -1 11 -12 -244 -194 -361 -257 -18 -10
-30 -22 -27 -27 9 -13 106 37 220 113 54 36 103 66 108 66 6 0 22 9 37 19 15
11 61 28 101 39 41 11 83 23 92 27 15 6 14 -1 -6 -53 -30 -76 -41 -138 -27
-147 6 -3 13 0 15 7 47 173 91 239 212 314 43 27 109 79 147 117 38 37 70 67
72 67 2 0 11 -21 20 -47 17 -52 41 -90 51 -81 3 4 0 16 -6 28 -6 11 -12 44
-12 72 -1 43 2 54 23 71 13 10 93 87 178 170 131 127 156 147 162 131 50 -133
54 -151 52 -234 -4 -172 -20 -284 -44 -306 -11 -9 -19 -14 -19 -9 0 4 -39 -30
-86 -76 -47 -46 -88 -84 -92 -84 -4 0 -17 20 -29 45 -18 37 -22 41 -22 20 0
-14 6 -42 13 -62 13 -35 12 -39 -14 -69 -26 -31 -30 -33 -93 -32 -52 0 -64 -3
-60 -14 7 -17 55 -43 80 -43 41 0 45 -13 28 -73 -9 -31 -15 -78 -13 -104 4
-51 4 -49 25 34 4 21 7 23 10 11 11 -45 33 5 33 75 0 42 51 125 112 183 58 55
147 119 154 111 3 -2 7 -22 10 -43 15 -116 46 -161 52 -77 l3 41 27 -27 c22
-21 25 -30 17 -46 -29 -57 -97 -151 -174 -240 -48 -55 -113 -133 -146 -173
l-58 -73 -37 41 c-20 22 -39 40 -43 40 -3 0 6 -21 21 -48 33 -55 46 -85 33
-78 -5 3 -18 -13 -30 -37 -11 -23 -34 -64 -50 -92 -57 -96 -70 -123 -63 -132
25 -30 -57 51 -88 88 l-39 45 35 38 c19 20 34 39 34 42 0 11 -31 2 -63 -20
-44 -30 -46 -28 -111 99 -79 155 -80 155 -152 191 -49 25 -80 34 -116 34 -31
0 -91 14 -157 36 -130 43 -243 70 -339 79 -39 4 -75 12 -78 17 -6 10 187 205
233 235 18 12 27 13 32 5 8 -14 34 7 76 62 35 46 92 227 126 400 5 27 19 69
31 94 l23 44 64 -6 c35 -4 72 -11 82 -17 21 -11 25 1 7 19 -7 7 -9 12 -6 12
17 0 136 -60 155 -79 13 -12 24 -17 28 -11 9 14 -28 44 -97 80 -31 16 -59 33
-62 38 -3 5 -32 17 -65 28 -34 10 -61 22 -61 27 0 21 180 198 268 262 68 51
185 104 227 105 17 0 56 -7 89 -14z m-857 -161 c14 -22 52 -100 85 -173 67
-151 67 -144 12 -302 -18 -52 -44 -134 -58 -181 -26 -83 -29 -87 -91 -137 -36
-28 -79 -59 -95 -67 -17 -9 -81 -63 -143 -120 -107 -99 -112 -103 -137 -91
-14 8 -49 21 -79 31 -53 17 -54 18 -30 31 13 7 31 13 40 14 37 0 197 74 262
120 59 42 78 63 123 138 47 78 54 98 64 175 13 96 2 251 -23 323 -25 69 -29
122 -17 197 7 39 17 83 22 97 11 28 10 29 65 -55z m962 -271 c1 -6 -8 -19 -19
-29 -10 -9 -36 -43 -57 -74 -21 -31 -45 -62 -53 -69 -18 -15 -82 -44 -87 -39
-2 2 10 31 27 65 16 33 30 65 30 70 0 6 23 37 51 71 l52 60 28 -22 c15 -12 28
-27 28 -33z m-2439 -64 c0 -6 21 -33 46 -60 49 -52 96 -73 189 -85 53 -7 173
-43 180 -54 8 -14 -13 -34 -26 -25 -8 5 -44 7 -81 5 -100 -4 -169 19 -228 78
-45 45 -107 151 -89 151 5 0 9 -5 9 -10z m467 -1373 c11 -10 6 -13 -28 -14
-22 -1 -59 -13 -82 -27 -48 -27 -91 -81 -81 -98 5 -7 3 -8 -6 -3 -10 6 -12 1
-8 -18 3 -15 2 -24 -2 -22 -4 3 -10 -5 -14 -18 -9 -33 -7 -49 4 -42 6 3 7 -1
4 -10 -16 -41 -41 53 -35 131 2 23 96 117 135 134 41 19 87 14 113 -13z"/>
<path d="M1027 1079 c-10 -6 -24 -8 -32 -5 -9 3 -12 0 -9 -9 3 -8 21 -19 40
-25 20 -7 31 -16 28 -22 -4 -6 -2 -8 3 -5 6 4 39 -2 74 -12 102 -29 157 -41
195 -41 19 0 33 -4 29 -9 -3 -5 0 -13 6 -17 7 -4 10 -3 7 2 -4 5 78 9 196 9
139 0 207 4 217 12 8 6 31 14 52 17 21 3 51 13 67 21 16 8 36 15 45 15 9 0 26
5 38 12 21 11 21 12 -13 19 -19 4 -37 4 -40 1 -5 -7 -27 -12 -71 -16 -14 -2
-30 -6 -36 -9 -6 -4 -94 -12 -194 -19 -144 -9 -209 -9 -299 1 -133 14 -250 39
-250 52 0 5 -15 10 -32 10 -24 1 -27 3 -10 6 12 2 22 9 22 14 0 12 -10 11 -33
-2z"/>
<path d="M2022 945 c-13 -14 -28 -23 -34 -19 -6 4 -8 3 -5 -3 10 -16 -16 -34
-33 -23 -8 5 -11 12 -7 17 5 4 12 1 17 -7 6 -9 10 -10 10 -3 0 20 -22 27 -35
10 -7 -9 -16 -13 -21 -9 -4 4 -2 -1 5 -10 7 -10 18 -15 25 -12 6 3 2 -2 -8
-10 -11 -9 -26 -16 -33 -16 -7 0 -12 -4 -10 -9 1 -5 -26 -36 -60 -70 -65 -63
-77 -68 -43 -16 21 32 26 55 11 55 -5 0 -11 -14 -15 -31 -3 -17 -10 -28 -14
-25 -5 3 -8 -8 -7 -25 1 -17 -7 -41 -18 -55 -17 -22 -20 -23 -31 -9 -10 15
-12 14 -12 -4 0 -11 4 -17 9 -14 5 3 7 0 5 -8 -3 -8 -11 -13 -17 -11 -7 1 -10
-2 -6 -8 3 -5 -3 -27 -14 -48 -30 -54 -83 -251 -95 -352 -7 -51 -9 -54 -16
-25 -7 28 -8 29 -9 5 -1 -25 15 -50 31 -50 4 0 8 9 8 20 0 13 9 22 25 26 14 3
22 10 19 16 -3 5 -12 4 -22 -4 -14 -11 -15 -10 -8 12 4 14 11 41 16 60 15 66
31 88 43 58 3 -7 3 1 1 17 -7 39 55 173 77 167 11 -3 12 -2 0 6 -10 8 -5 25
27 90 37 76 89 152 104 152 3 0 4 -10 2 -22 -4 -21 -4 -21 4 -3 5 11 7 26 5
33 -4 8 1 10 13 5 16 -6 17 -5 6 9 -11 14 -10 17 7 23 12 3 21 11 21 16 0 6
10 8 23 5 12 -3 16 -3 10 0 -23 10 -13 25 12 18 15 -4 25 -2 25 5 0 6 -8 8
-17 4 -16 -5 -16 -4 1 13 13 14 20 15 23 7 3 -7 9 -13 15 -13 6 0 5 7 -3 16
-10 13 -10 17 2 25 8 5 17 9 22 9 10 0 9 40 -1 40 -5 0 -18 -11 -30 -25z"/>
<path d="M494 759 c-4 -7 -8 -28 -10 -47 -2 -22 1 -31 5 -23 7 11 10 11 15 0
3 -8 3 -3 0 10 -4 16 -3 21 5 17 6 -4 11 -12 11 -18 0 -6 10 -30 22 -54 12
-24 20 -45 17 -47 -2 -2 -55 0 -118 5 -101 9 -129 7 -270 -16 -86 -14 -160
-26 -164 -26 -4 0 -7 -90 -7 -201 0 -188 1 -201 17 -194 10 4 74 17 143 30
169 32 188 39 264 90 97 65 240 139 244 126 2 -6 13 -11 25 -11 11 0 28 -7 38
-16 28 -26 43 -12 20 17 -11 15 -17 29 -14 33 12 11 21 6 19 -11 0 -12 6 -17
17 -17 13 2 16 -3 12 -20 -4 -15 -4 -17 3 -6 11 17 10 56 -2 67 -4 5 -7 4 -6
-2 4 -20 0 -35 -10 -35 -6 0 -10 8 -8 18 2 12 -4 17 -19 17 -16 0 -33 17 -61
61 -22 34 -45 65 -51 68 -6 4 -11 13 -11 19 0 7 4 6 11 -3 9 -13 10 -13 6 0
-2 8 -11 14 -21 12 -21 -4 -20 16 4 56 11 17 16 32 11 32 -5 0 -14 -14 -22
-31 -12 -30 -13 -30 -26 -13 -7 10 -11 24 -8 32 2 7 1 10 -5 7 -11 -7 -43 52
-35 65 3 5 1 11 -3 14 -5 3 -14 -6 -21 -21 -6 -14 -14 -23 -17 -20 -3 3 -1 15
6 26 11 22 7 30 -6 10z"/>
<path d="M805 200 c-4 -6 5 -7 25 -4 19 4 30 2 30 -5 0 -6 -13 -11 -30 -11
-32 0 -36 -6 -20 -30 12 -19 -8 -44 -24 -31 -6 5 -23 9 -38 8 -22 -2 -26 -7
-26 -28 1 -21 4 -24 13 -15 10 8 10 13 1 19 -7 6 -4 7 7 3 11 -3 16 -2 12 4
-3 6 1 10 9 10 9 0 16 -3 15 -7 -1 -13 -70 -66 -85 -66 -8 0 -12 -3 -9 -5 3
-3 -2 -14 -12 -24 -15 -17 -14 -18 40 -18 38 0 70 7 98 22 l42 22 18 -23 c11
-14 25 -21 34 -17 22 8 18 55 -10 104 -14 24 -22 49 -18 55 3 6 1 7 -5 3 -14
-9 -15 -1 -3 23 8 14 4 17 -24 19 -18 2 -36 -2 -40 -8z"/>
</g>
</svg>
